# xmcd CD database file
#
# Track frame offsets:
#	150
#	19158
#	34494
#	49384
#	65753
#	84177
#	101139
#	116589
#	136416
#	153754
#	172437
#	190567
#	209739
#	226425
#	244329
#	255782
#
# Disc length: 3692 seconds
#
# Revision: 2
# Processed by: cddbd v1.5.2PL0 Copyright (c) Steve Scherf et al.
# Submitted via: CDex 1.51
#
DISCID=e50e6a10
DTITLE=Various Artist - ZMPCP-28
DYEAR=1900
DGENRE=Blues
TTITLE0=Olly Murs - Beautiful Me
TTITLE1=Becky G - Can't Stop Dancin'
TTITLE2=George Ezra - Cassy O'
TTITLE3=Nick Jones - Chains
TTITLE4=Charli XCX - Doing It
TTITLE5=Take That - Get Ready For It
TTITLE6=Imagine Dragons - I Bet My Life
TTITLE7=Ellie Goulding - Love Me Like You Do
TTITLE8=Mr Probz - Nothing Really Matters
TTITLE9=Maroon 5 - Sugar
TTITLE10=Jessie J - Sweet Talker
TTITLE11=Hozier - Take Me To The Church
TTITLE12=John Newman /Try
TTITLE13=Olly Murs Ft Demi Lovato - Up
TTITLE14=Fleur East - Uptown Funk
TTITLE15=Mark Ronson Ft Bruno Mars - Uptown Funk
EXTD=
EXTT0=
EXTT1=
EXTT2=
EXTT3=
EXTT4=
EXTT5=
EXTT6=
EXTT7=
EXTT8=
EXTT9=
EXTT10=
EXTT11=
EXTT12=
EXTT13=
EXTT14=
EXTT15=
PLAYORDER=
